# xmcd
#
# Track frame offsets:
#	150
#	21486
#	33986
#	47626
#	63286
#	83613
#	101391
#	121701
#	138445
#	155841
#	182545
#	216814
#
# Disc length: 3120 seconds
#
# Revision: 1
# Processed by: cddbd v1.5.2PL0 Copyright (c) Steve Scherf et al.
# Submitted via: audiograbber 1.83.01
#
DISCID=980c2e0c
DTITLE=Michael Martin Murphey - Buckaroo Blue Grass II
DYEAR=2010
DGENRE=Country
TTITLE0=Blue Sky Riding Song
TTITLE1=Running Gun
TTITLE2=Backslider's Wine
TTITLE3=Rollin' Nowhere
TTITLE4=Southwestern Pilgrimage
TTITLE5=Medicine Man
TTITLE6=Cosmic Cowboy
TTITLE7=Desert Rat
TTITLE8=Running Blood
TTITLE9=Wildfire
TTITLE10=Renegade
TTITLE11=Swans Against the Sun
EXTD=
EXTT0=
EXTT1=
EXTT2=
EXTT3=
EXTT4=
EXTT5=
EXTT6=
EXTT7=
EXTT8=
EXTT9=
EXTT10=
EXTT11=
PLAYORDER=
